<svg id="Capa_1" enable-background="new 0 0 512 512" height="512" viewBox="0 0 512 512" width="512"
     xmlns="http://www.w3.org/2000/svg">
  <g>
    <path
      d="m296.917 152c10.311 0 18.699-8.389 18.699-18.699v-11.816c0-.905.461-1.501.736-1.776.274-.274.87-.734 1.775-.734h.002l64.523.048c15.176 0 27.521-12.346 27.521-27.521v-33.981c0-15.176-12.346-27.521-27.521-27.521h-32.528c-4.143 0-7.5 3.357-7.5 7.5s3.357 7.5 7.5 7.5h32.528c6.904 0 12.521 5.617 12.521 12.521v33.979c0 6.904-5.617 12.521-12.516 12.521l-64.517-.048c-.006 0-.011 0-.016 0-4.675 0-9.069 1.819-12.377 5.123-3.311 3.309-5.134 7.707-5.134 12.388v11.816c0 2.04-1.659 3.699-3.699 3.699-.978 0-1.899-.378-2.596-1.063l-25.834-25.441c-4.239-4.175-9.851-6.474-15.799-6.474h-13.603c-6.904 0-12.521-5.617-12.521-12.521v-33.979c0-6.904 5.617-12.521 12.521-12.521h76.061c4.143 0 7.5-3.357 7.5-7.5s-3.357-7.5-7.5-7.5h-57.97v-2.479c.003-15.175-12.344-27.521-27.519-27.521h-143.569c-15.176 0-27.522 12.346-27.522 27.521v33.979c0 15.176 12.346 27.521 27.527 27.521l64.519-.048h.002c.904 0 1.5.46 1.774.734.275.275.736.871.736 1.776v11.817c.001 10.311 8.39 18.698 18.7 18.698 4.941 0 9.601-1.909 13.121-5.376 1.046-.919 25.323-25.149 26.621-26.106-.642 14.899 12.055 28.566 27.521 28.504h13.603c1.986 0 3.859.768 5.274 2.161l25.835 25.441c3.521 3.469 8.18 5.378 13.121 5.378zm-85.354-94.479v16.95c-4.246.855-8.159 2.918-11.312 6.023l-25.834 25.441c-.696.686-1.618 1.063-2.596 1.063-2.04 0-3.7-1.66-3.7-3.699v-11.815c0-4.681-1.823-9.079-5.134-12.388-3.307-3.304-7.702-5.123-12.375-5.123-.005 0-.011 0-.016 0l-64.512.048c-6.904 0-12.521-5.617-12.521-12.521v-33.979c0-6.904 5.617-12.521 12.522-12.521h143.569c6.904 0 12.521 5.617 12.521 12.521v2.479h-3.09c-15.176 0-27.522 12.346-27.522 27.521z"/>
    <circle cx="127.837" cy="43.424" r="7.5"/>
    <circle cx="157.869" cy="43.424" r="7.5"/>
    <circle fill="red" cx="187.9" cy="43.424" r="7.5"/>
    <circle cx="280.838" cy="74.427" r="7.5"/>
    <circle cx="310.87" cy="74.427" r="7.5"/>
    <circle cx="340.901" cy="74.427" r="7.5"/>
    <path
      d="m491.984 398.448c-.069-.036-.139-.072-.208-.106l-60.096-29.574c-.099-.598-2.618-22.967-2.814-23.926 12.569-9.597 22.441-24.232 28.327-41.199 15.823-2.008 35.545-13.588 35.545-35.995 0-11.045-7.716-20.354-18.133-22.999v-25.463c0-33.689-20.001-64.06-50.954-77.37-3.806-1.638-8.216.123-9.853 3.927-1.637 3.806.121 8.217 3.927 9.853 25.441 10.94 41.88 35.901 41.88 63.591v24.709h-1.915c-2.773 0-5.244-1.763-6.146-4.386l-10.42-30.28c-1.107-3.221-3.518-5.883-6.61-7.306-3.073-1.412-6.633-1.509-9.767-.266-9.472 3.759-22.946 6.187-34.328 6.187-11.383 0-24.857-2.428-34.328-6.187-3.137-1.243-6.694-1.147-9.768.267-3.093 1.422-5.503 4.084-6.61 7.304l-10.419 30.28c-.903 2.624-3.373 4.387-6.146 4.387h-1.915v-24.727c-.085-36.457 28.387-66.781 64.818-69.038 4.134-.256 7.277-3.814 7.021-7.949-.256-4.134-3.791-7.276-7.949-7.021-44.341 2.746-78.994 39.662-78.891 84.026v25.223c-10.874 2.245-18.811 11.647-18.811 23.239 0 23.186 20.071 34.555 36.25 36.119 5.787 16.405 14.601 30.392 28.258 41.249l-2.769 23.732-19.816 9.659c-3.724 1.815-5.271 6.305-3.456 10.028 1.3 2.665 3.97 4.216 6.748 4.216 1.103 0 2.223-.244 3.28-.76l14.904-7.264c1.084 2.815 2.584 5.459 4.477 7.811 5.486 6.822 16.033 14.954 35.119 14.954s29.634-8.133 35.122-14.956c1.884-2.342 3.38-4.973 4.462-7.775l55.039 27.084c7.312 3.93 11.85 11.514 11.85 19.82v59.934c0 3.032-2.467 5.5-5.5 5.5h-45.393v-50.702c0-10.752-8.748-19.5-19.5-19.5h-72.156c-10.752 0-19.5 8.748-19.5 19.5v50.702h-46.302c-3.032 0-5.5-2.468-5.5-5.5v-59.787c0-8.345 4.568-15.945 11.93-19.863l9.435-4.598c3.724-1.815 5.271-6.305 3.456-10.028s-6.305-5.271-10.028-3.456l-9.547 4.653c-.069.034-.138.069-.206.105-12.36 6.504-20.039 19.22-20.039 33.187v59.787c0 11.304 9.196 20.5 20.5 20.5h202.851c11.304 0 20.5-9.196 20.5-20.5v-59.935c0-13.903-7.628-26.592-19.906-33.117zm-26.933-139.552c.506.029 1.822-.048 3.501 0 5.151 0 9.187 3.845 9.187 8.753 0 10.976-8.263 16.94-16.01 19.591 1.844-8.822 2.952-18.303 3.322-28.344zm-162.629 8.752c0-4.99 3.805-8.753 8.851-8.753.822-.125 2.041 0 4.514 0 .374 10.157 1.503 19.744 3.384 28.658-7.903-2.478-16.749-8.472-16.749-19.905zm111.429 115.387c-4.994 6.208-12.878 9.356-23.434 9.356-10.555 0-18.438-3.147-23.432-9.355-2.437-3.029-3.563-7.089-3.091-11.139l2.155-18.471c7.664 3.373 15.787 5.163 23.972 5.163 8.475 0 16.864-1.859 24.749-5.339l2.171 18.649c.473 4.049-.654 8.108-3.09 11.136zm-23.829-39.445c-27.667 0-57.372-26.999-59.285-86.094 5.864-2.218 10.616-6.934 12.74-13.105l9.583-27.851c10.86 3.862 25.192 6.305 37.358 6.305 12.165 0 26.497-2.442 37.358-6.304l9.583 27.85c2.123 6.173 6.879 10.891 12.747 13.107-2.057 67.763-38.371 86.092-60.084 86.092zm40.976 153.41h-81.158v-50.702c0-2.481 2.019-4.5 4.5-4.5h72.158c2.481 0 4.5 2.019 4.5 4.5z"/>
    <path
      d="m226.507 433.008-59.637-26.834c-.807-.363-1.366-1.136-1.459-2.017l-2.575-24.359c9.3-6.875 17.902-15.375 23.28-24.865 9.884-17.44 15.957-38.65 17.4-60.379 6.582-1.418 11.532-7.279 11.532-14.278v-16.79c-.346-25.123-13.358-49.77-31.022-66.671-4.216-3.937-8.723-7.391-13.476-10.362.108-1.322.183-2.648.183-3.971 0-26.182-21.06-47.482-46.945-47.482s-46.944 21.301-46.944 47.482c0 1.329.072 2.665.181 3.99-9.628 6.102-17.019 13.496-22.467 20.308-20.285 25.674-22.479 48.821-22.03 80.606 0 24.866 8.915 62.049 14.241 84.265 1.421 7.333 9.196 14.468 18.021 13.521 6.045-.519 11.191-4.28 13.736-9.493 1.994 1.697 4.049 3.312 6.136 4.842l-2.492 23.58c-.094.89-.661 1.666-1.479 2.025l-61.171 26.918c-11.791 5.188-19.41 16.865-19.41 29.747v28.709c0 11.304 9.196 20.5 20.5 20.5h204.562c11.304 0 20.5-9.196 20.5-20.5v-28.854c-.001-12.767-7.524-24.401-19.165-29.638zm-102.721-283.008c16.464 0 30.056 12.731 31.761 29.02-9.912-3.753-20.582-5.695-31.761-5.695-12.105 0-22.641 2.164-31.752 5.624 1.738-16.254 15.312-28.949 31.752-28.949zm-42.86 207.174c.63-10.635 1.412-23.857 2.103-35.621.243-4.135-2.913-7.684-7.048-7.927-4.125-.228-7.683 2.913-7.927 7.048-.994 16.93-2.178 36.894-2.825 47.789-.055.919-.783 1.673-1.698 1.764-.009 0-.018.001-.026.002-.94.087-1.779-.525-1.998-1.439-4.769-19.843-13.96-58.136-13.98-81.401-.197-29.215.492-47.68 18.744-71.238 10.15-12.693 28.368-27.824 57.516-27.824 19.329 0 36.131 6.526 49.943 19.4 13.259 12.241 26.232 34.76 26.317 55.761v16.388c-.904-.062-1.737-.344-2.424-.819-10.061-6.993-14.123-18.541-18.388-32.914-1.727-5.812-7.173-9.871-13.246-9.871h-20.292l-13.389-15.544c-1.425-1.654-3.5-2.605-5.683-2.605s-4.258.951-5.683 2.605l-13.389 15.544h-21.461c-7.273 0-13.301 5.652-13.788 12.896-.129 1.443-1.322 15.025-2.323 36.708-.191 4.138 3.008 7.646 7.146 7.838 4.144.179 7.647-3.009 7.838-7.146.877-19.006 1.928-31.953 2.213-35.295h23.814c2.183 0 4.258-.951 5.683-2.605l9.95-11.552 9.951 11.552c1.425 1.654 3.5 2.605 5.683 2.605h22.852c3.947 13.283 9.008 29.494 23.592 39.842-.982 20.363-6.479 40.265-15.637 56.427-5.111 9.019-14.648 18.06-26.855 25.456-11.875 7.196-20.805 9.618-23.055 9.618-5.07-.004-27.562-9.008-42.23-25.442zm80.812 63.14c-10.213 6.511-23.766 10.26-38.097 10.274-14.322 0-27.837-3.741-37.982-10.258 5.303-1.888 10.698-7.85 11.427-14.651l1.72-16.28c9.861 5.238 19.001 8.213 24.348 8.213 5.614 0 15.247-3.234 25.547-8.821l1.791 16.942c.57 5.424 4.797 12.169 11.246 14.581zm68.933 71.186c0 3.032-2.467 5.5-5.5 5.5h-204.561c-3.033 0-5.5-2.468-5.5-5.5v-28.707c0-6.937 4.103-13.224 10.451-16.018l44.393-19.535c13.144 11.542 32.877 18.348 53.787 18.348 20.676-.021 40.403-6.788 53.624-18.243l42.987 19.342c6.269 2.82 10.319 9.084 10.319 15.958z"/>
  </g>
</svg>
