<?xml version="1.0" encoding="UTF-8"?>
<svg xmlns="http://www.w3.org/2000/svg" width="150" height="150" viewBox="0 0 150 150" fill="none">
  <g clip-path="url(#clip0)">
    <path d="M53.6681 112.837L47.1802 131.003L54.6542 142.318L65.3982 125.45L60.3636 111.228L53.6681 112.837Z"
          fill="#316d9c"></path>
    <path
      d="M50.4497 103.91L53.6677 112.837L55.64 113.875L61.6608 112.059L63.4255 107.076L54.9653 100.536L50.4497 103.91Z"
      fill="#316d9c"></path>
    <path
      d="M88.9619 44.481C88.9619 41.782 87.3529 39.4983 85.0692 38.4083L81.6436 37.8374V32.4395V29.3253C81.6436 18.8927 73.8062 10.2768 63.7889 8.82354V6.90313C63.7889 4.7232 62.0242 2.90659 59.7923 2.90659H54.6539C52.474 2.90659 50.6574 4.67129 50.6574 6.90313V8.82354C40.692 10.3287 32.8027 18.9446 32.8027 29.3253V32.4395V37.7855L30.2595 38.1488C27.5086 38.9793 25.4844 41.5225 25.4844 44.5329V45.7267C25.4844 45.7267 34.1522 48.2699 57.1972 48.2699C80.2422 48.2699 88.91 45.7267 88.91 45.7267L88.9619 44.481Z"
      fill="#316d9c"></path>
    <path
      d="M54.654 143.772L26.3149 100.848L27.6125 99.9654L54.654 140.917L81.6437 98.4083L82.9931 99.2388L54.654 143.772Z"
      fill="#0F1928"></path>
    <path
      d="M54.9657 112.059L49.6197 110.398L46.8169 103.235L48.2702 102.664L50.8134 109.152L54.9657 110.398L59.1179 109.152L61.6612 102.664L63.1145 103.235L60.3117 110.398L54.9657 112.059Z"
      fill="#0F1928"></path>
    <path d="M51.1602 110.044L44.6826 128.123L46.1485 128.648L52.626 110.569L51.1602 110.044Z" fill="#0F1928"></path>
    <path d="M58.5753 110.95L57.1079 111.471L63.0785 128.297L64.5459 127.776L58.5753 110.95Z" fill="#0F1928"></path>
    <path d="M53.5073 97.0574L40.3296 107.588L41.3017 108.805L54.4794 98.2738L53.5073 97.0574Z" fill="#0F1928"></path>
    <path d="M55.6042 96.9788L54.6318 98.1949L67.7251 108.664L68.6975 107.448L55.6042 96.9788Z" fill="#0F1928"></path>
    <path
      d="M51.0208 149.741L27.6644 127.941L29.6887 119.689L22.4741 116.107L26.1073 99.654L27.6125 99.9654L24.2907 115.225L31.4534 118.858L29.3772 127.422L52.0589 148.599L51.0208 149.741Z"
      fill="#0F1928"></path>
    <path
      d="M57.7682 149.741L56.6782 148.599L79.4118 127.422L77.2838 118.858L84.4983 115.225L81.1765 99.9654L82.6817 99.654L86.3149 116.107L79.1004 119.689L81.1246 127.941L57.7682 149.741Z"
      fill="#0F1928"></path>
    <path
      d="M54.9651 98.3564C49.5672 98.3564 44.3769 96.7993 40.3804 93.8927L41.2627 92.6471C44.9997 95.346 49.8786 96.7993 54.9651 96.7993C60.0517 96.7993 64.9305 95.346 68.6676 92.6471L69.5499 93.8927C65.5534 96.7993 60.415 98.3564 54.9651 98.3564Z"
      fill="#0F1928"></path>
    <path d="M21.9033 135.882H20.3462V145.848H21.9033V135.882Z" fill="#0F1928"></path>
    <path
      d="M32.0245 68.3564L28.3913 65.6574C27.0418 64.6713 26.1594 63.1661 25.7961 61.5052L25.1214 57.9239C24.7581 56.1073 25.2252 54.2907 26.3671 52.9412C27.4051 51.6436 28.9622 50.917 30.5712 50.917H32.7511V52.4741H30.6231C29.4812 52.4741 28.3913 52.9931 27.6127 53.9273C26.7823 54.9654 26.419 56.3149 26.6785 57.6644L27.3532 61.2457C27.6127 62.5433 28.2875 63.6851 29.3255 64.4637L32.9588 67.1626L32.0245 68.3564Z"
      fill="#0F1928"></path>
    <path
      d="M76.8683 68.3564L75.9341 67.1107L79.5673 64.4118C80.6054 63.6332 81.2801 62.4914 81.5396 61.1938L82.2144 57.6125C82.4739 56.263 82.1625 54.9135 81.2801 53.8754C80.5016 52.9412 79.4635 52.4221 78.2697 52.4221H76.4012V50.8651H78.2697C79.8787 50.8651 81.3839 51.5917 82.4739 52.8893C83.6157 54.2907 84.0829 56.1073 83.7195 57.872L83.0448 61.4533C82.7334 63.1661 81.7991 64.6194 80.4497 65.6055L76.8683 68.3564Z"
      fill="#0F1928"></path>
    <path d="M67.4632 92.1865L66.896 93.6366L88.5995 102.126L89.1667 100.676L67.4632 92.1865Z" fill="#0F1928"></path>
    <path
      d="M54.9135 150C35.4498 150 16.6609 146.782 0.67474 140.606L0 140.398L3.3218 128.772C7.57785 114.654 17.0761 103.391 29.3772 97.7855L41.5744 92.1281L42.2491 93.5294L30.0519 99.1869C18.1142 104.637 8.92734 115.588 4.82699 129.239L1.92042 139.464C17.5952 145.329 35.917 148.443 54.9135 148.443C68.2526 148.443 81.1246 146.938 93.218 143.979L93.5813 145.484C81.3841 148.495 68.3564 150 54.9135 150Z"
      fill="#0F1928"></path>
    <path d="M67.9931 82.9412H66.436V94.7232H67.9931V82.9412Z" fill="#0F1928"></path>
    <path d="M42.6645 82.8374H41.1074V93.9965H42.6645V82.8374Z" fill="#0F1928"></path>
    <path
      d="M54.6538 89.4291C51.0725 89.4291 47.4911 88.2353 44.4808 85.8477L39.4462 81.8512C34.723 78.0623 31.8164 72.4048 31.8164 67.1107V49.6713H33.3735V67.0588C33.3735 71.9377 36.0725 77.128 40.4323 80.6055L45.4669 84.6021C50.9687 89.0138 58.3908 89.0138 63.8925 84.6021L68.9271 80.6055C73.1832 77.1799 75.7264 72.1972 75.7264 67.2664V49.7751H77.2835V67.2145C77.2835 72.6124 74.5327 78.0623 69.8614 81.7993L64.8268 85.7958C61.8164 88.1834 58.2351 89.4291 54.6538 89.4291Z"
      fill="#0F1928"></path>
    <path
      d="M30.934 30.3114H29.377V27.1972C29.377 16.6609 37.3181 7.52596 47.9064 5.91696L48.1659 7.47406C38.3562 8.97925 30.986 17.4395 30.986 27.1972V30.3114H30.934Z"
      fill="#0F1928"></path>
    <path
      d="M79.7233 30.3114H78.1662V27.1972C78.1662 17.3876 70.796 8.92734 60.9863 7.47406L61.1939 5.91696C71.7303 7.47406 79.7233 16.6609 79.7233 27.1972V30.3114V30.3114Z"
      fill="#0F1928"></path>
    <path
      d="M54.5499 46.9204C31.6607 46.9204 22.9928 44.481 22.6295 44.3772L22.0586 44.2215V42.4049C22.0586 39.135 24.2385 36.1765 27.3527 35.2422H27.4565L32.1797 34.5675H32.2835C38.3043 35.1384 45.3631 35.4498 53.2524 35.4498C61.8164 35.4498 69.3423 35.0865 75.6226 34.4118H75.7264L82.5776 35.6055L82.6814 35.6574C85.2766 36.9031 86.9894 39.5502 87.0413 42.4049V44.2215L86.4704 44.3772C86.107 44.481 77.4392 46.9204 54.5499 46.9204ZM23.6157 43.0277C25.8475 43.5467 35.0863 45.4152 54.5499 45.4152C74.0136 45.4152 83.2005 43.5986 85.4842 43.0277V42.4049C85.4842 40.173 84.1347 38.0969 82.1105 37.1107L75.7264 36.0208C69.3942 36.6955 61.8164 37.0588 53.2524 37.0588C45.3631 37.0588 38.3043 36.7474 32.2316 36.1765L27.7679 36.7993C25.3285 37.5779 23.6157 39.8616 23.6157 42.4568V43.0277V43.0277Z"
      fill="#0F1928"></path>
    <path
      d="M61.8686 24.1869H60.3115V4.77509C60.3115 3.01038 58.8582 1.55709 57.0935 1.55709H51.9551C50.2423 1.55709 48.789 3.01038 48.789 4.77509V24.1869H47.2319V4.77509C47.2319 2.12803 49.36 0 52.007 0H57.1454C59.7925 0 61.9205 2.12803 61.9205 4.77509V24.1869H61.8686Z"
      fill="#0F1928"></path>
    <path d="M36.5918 21.9031H30.6748V23.4602H36.5918V21.9031Z" fill="#0F1928"></path>
    <path d="M78.5296 21.9031H72.5088V23.4602H78.5296V21.9031Z" fill="#0F1928"></path>
    <path
      d="M147.872 49.5156H146.886H120.363C120.363 49.5156 103.287 48.1661 98.2526 62.2837C96.2803 68.9273 99.3945 75.8823 105.363 78.9446C107.18 79.8789 109.1 80.2941 111.021 80.2422C117.145 79.5156 121.869 74.481 122.128 68.3045V67.9931C126.176 75.7785 128.253 84.3945 128.253 93.1661L128.201 138.529H149.014V49.5156H147.872Z"
      fill="#316d9c"></path>
    <path
      d="M107.647 142.785C104.17 142.785 100.952 141.436 98.4603 138.997C96.0209 136.557 94.6714 133.287 94.6714 129.81V119.118C94.6714 99.9135 94.7233 75.4671 94.7233 63.3737H96.2804C96.2804 75.4671 96.2804 99.9135 96.2285 119.118V129.81C96.2285 132.872 97.4223 135.727 99.5503 137.855C101.73 140.035 104.585 141.176 107.595 141.176C113.876 141.176 119.014 136.038 119.014 129.758V67.3702H120.571V129.862C120.623 136.972 114.81 142.785 107.647 142.785Z"
      fill="#0F1928"></path>
    <path
      d="M132.561 97.1107H131.003V95.0865H132.561V97.1107ZM132.561 93.0104H131.003V90.9342H132.561V93.0104ZM132.561 88.8581H131.003V86.782H132.561V88.8581ZM132.561 84.7059H131.003V82.6297H132.561V84.7059ZM132.561 80.5536H131.003V78.4775H132.561V80.5536ZM132.561 76.4014H131.003V74.3252H132.561V76.4014ZM132.561 72.2491H131.003V70.173H132.561V72.2491ZM132.561 68.0969H131.003V66.0207H132.561V68.0969ZM132.561 63.9446H131.003V61.8685H132.561V63.9446Z"
      fill="#0F1928"></path>
    <path d="M132.872 103.702H131.315V119.896H132.872V103.702Z" fill="#0F1928"></path>
    <path
      d="M147.664 135.156H126.073V133.599H146.107V46.1938H118.08C117.924 46.1938 101.575 45.0519 96.7475 58.4429C94.9309 64.5675 97.7856 71.2111 103.495 74.1695C107.803 76.4014 113.045 75.519 116.523 71.9896C118.91 69.6021 119.793 66.5398 119.066 63.5813C118.339 60.7785 116.159 58.4948 113.357 57.6643C111.696 57.1972 109.931 57.3529 108.426 58.1834C106.921 59.0138 105.779 60.3633 105.312 62.0242L103.806 61.609C105.052 57.3529 109.568 54.9135 113.824 56.1592C117.145 57.1453 119.741 59.8443 120.571 63.1661C121.453 66.6955 120.415 70.2768 117.613 73.0796C113.616 77.0761 107.647 78.0623 102.768 75.5709C96.3842 72.301 93.2181 64.8789 95.2424 57.9758C100.329 43.7543 117.249 44.5848 118.132 44.6886H147.613V135.156H147.664Z"
      fill="#0F1928"></path>
  </g>
  <defs>
    <clipPath id="clip0">
      <rect width="149.118" height="150" fill="white"></rect>
    </clipPath>
  </defs>
</svg>
