<?xml version="1.0" encoding="UTF-8"?>
<svg xmlns="http://www.w3.org/2000/svg" width="144" height="150" viewBox="0 0 144 150" fill="none">
  <g clip-path="url(#clip0)">
    <path
      d="M89.8411 52.5149V26.7042C89.8411 17.4719 80.6088 10.0761 70.4334 10.4732C66.661 5.75777 61.5485 4.11978 55.0462 4.11978C39.2123 4.11978 26.4062 16.9755 26.4062 32.7598V54.2521L26.4559 53.8054C27.399 52.5149 28.9377 51.6214 30.6253 51.6214H33.5538C34.8444 44.7717 37.4254 36.7306 37.4254 36.7306C46.2606 36.7306 59.2156 35.043 69.4903 31.6678C69.4903 31.6678 82.2964 37.9715 83.6366 51.0258H86.0191C87.5082 51.0258 88.8483 51.7207 89.7914 52.7631L89.8411 52.5149Z"
      fill="#316d9c"></path>
    <path
      d="M57.2798 147.518L38.021 103.739L39.4108 103.094L57.2798 143.845L76.0422 102.052L77.432 102.647L57.2798 147.518Z"
      fill="#0F1928"></path>
    <path d="M72.6308 91.0873L72.0156 92.4434L82.8645 97.3645L83.4796 96.0084L72.6308 91.0873Z" fill="#0F1928"></path>
    <path
      d="M56.8828 150C36.681 150 17.2237 146.625 0.645268 140.271L0 140.073L3.42488 128.061C7.84249 113.468 17.6704 101.754 30.4269 95.996L41.6446 90.9331L42.2402 92.2733L31.0225 97.3362C18.6631 102.945 9.13302 114.312 4.86433 128.508L1.7869 139.179C18.0675 145.334 37.0781 148.561 56.8332 148.561C65.7181 148.561 74.5036 147.915 82.9914 146.625L83.2396 148.114C74.7022 149.355 65.8173 150 56.8828 150Z"
      fill="#0F1928"></path>
    <path d="M21.4427 136.4H19.9536V145.93H21.4427V136.4Z" fill="#0F1928"></path>
    <path
      d="M57.1309 99.818C50.976 99.818 45.8635 98.2793 41.4956 95.1522L41.1978 94.9537V83.8848H42.6868V94.1595C46.757 96.9391 51.4724 98.3289 57.1309 98.3289C63.0376 98.3289 67.6537 97.0384 71.575 94.3084V83.8848H73.0641V95.1026L72.7662 95.3011C68.4479 98.3785 63.4843 99.818 57.1309 99.818Z"
      fill="#0F1928"></path>
    <path
      d="M83.0907 66.3633L82.1973 65.1721L86.317 61.9457C87.4587 61.0523 88.2529 59.7617 88.5507 58.2727L89.2952 54.3018C89.593 52.7631 89.1959 51.2243 88.2529 50.0331C87.409 48.9907 86.2178 48.3951 84.9272 48.3951H82.5447V46.906H84.9272C86.6645 46.906 88.2529 47.7002 89.3945 49.0404C90.6354 50.5294 91.1317 52.5645 90.7843 54.55L90.0397 58.5208C89.6923 60.3574 88.6996 61.9954 87.2601 63.0873L83.0907 66.3633Z"
      fill="#0F1928"></path>
    <path
      d="M31.1217 66.7604L27.1012 63.7326C25.6618 62.6406 24.6691 61.0027 24.272 59.1661L23.4778 55.1952C23.0807 53.2594 23.5771 51.2244 24.818 49.7353C25.9596 48.3455 27.6472 47.5513 29.3845 47.5513H32.313V49.0404H29.3845C28.0939 49.0404 26.853 49.636 25.9596 50.6784C25.0165 51.82 24.6194 53.4083 24.9172 54.8974L25.7114 58.8683C26.0092 60.3574 26.8034 61.6479 27.945 62.5414L31.9656 65.5692L31.1217 66.7604Z"
      fill="#0F1928"></path>
    <path
      d="M25.9598 50.8769H24.4707V29.3845C24.4707 13.2032 37.6739 0 53.8552 0C63.6335 0 72.1213 6.60159 74.6031 16.0324L73.1636 16.4295C70.8804 7.64394 62.9386 1.53872 53.9049 1.53872C38.5177 1.53872 26.0094 14.047 26.0094 29.4341V50.8769H25.9598Z"
      fill="#0F1928"></path>
    <path
      d="M89.3944 49.1396H87.9053V23.3289C87.9053 19.6062 86.2673 15.9828 83.2892 13.1039C79.6658 9.62939 74.454 7.64395 69.2918 7.8425L69.2422 6.35342C74.9007 6.15487 80.4103 8.23958 84.3315 12.0616C87.6075 15.1886 89.3944 19.2091 89.3944 23.3786V49.1396Z"
      fill="#0F1928"></path>
    <path
      d="M57.2304 91.8266C53.1106 91.8266 48.9412 90.4368 45.5163 87.6572L39.7089 82.9914C34.2986 78.6234 30.9233 72.1211 30.9233 65.9663V54.5996C30.9233 47.8491 35.3906 33.7525 35.5891 33.1569L35.738 32.6605H36.284C46.112 32.6605 62.5415 30.0794 73.5607 25.3144L74.1563 26.7042C72.8161 27.2998 71.3767 27.8458 69.8876 28.3422C73.3621 30.4765 83.339 37.6241 83.339 49.9338V66.9093C83.339 72.6175 80.063 78.7723 74.8016 82.9914L68.9942 87.6572C65.5196 90.4368 61.3998 91.8266 57.2304 91.8266ZM36.83 34.0999C36.0358 36.7306 32.4124 48.7426 32.4124 54.55V65.9166C32.4124 71.6248 35.5891 77.73 40.652 81.8001L46.4594 86.4659C52.9121 91.6281 61.5984 91.6281 68.0511 86.4659L73.8585 81.8001C78.7724 77.8293 81.8499 72.1211 81.8499 66.9093V49.9338C81.8499 35.9861 68.1503 29.0371 68.0014 28.9874V28.9378C57.7268 32.2138 45.1192 34.0503 36.83 34.0999Z"
      fill="#0F1928"></path>
    <path d="M52.2666 59.4143H39.9072V50.1324H52.2666V59.4143V59.4143ZM41.3963 57.9252H50.7775V51.6214H41.3963V57.9252Z"
          fill="#0F1928"></path>
    <path d="M74.3545 59.4143H61.9951V50.1324H74.3545V59.4143ZM63.4842 57.9252H72.8654V51.6214H63.4842V57.9252Z"
          fill="#0F1928"></path>
    <path d="M63.8319 50.182H51.5718V51.6711H63.8319V50.182Z" fill="#0F1928"></path>
    <path d="M143.15 146.674H87.9053V76.2409H123.395V77.73H89.3944V145.185H141.661V95.6982H143.15V146.674Z"
          fill="#0F1928"></path>
    <path
      d="M143.15 90.8835H128.507V76.2409H131.535L143.15 87.9054V90.8835ZM129.996 89.3944H141.661V88.5506L130.939 77.73H129.996V89.3944Z"
      fill="#0F1928"></path>
    <path d="M143.15 78.8716H141.661V63.5837H96.3929V71.724H94.9038V62.0946H143.15V78.8716Z" fill="#0F1928"></path>
    <path d="M102 98V128L131 98H102ZM106.026 102.612H119.9L106.026 116.965V102.612V102.612Z" fill="#316d9c"></path>
    <path d="M133 131H127V138H133V131Z" fill="#316d9c"></path>
    <path d="M100 127.949V96.809H131.14L100 127.949ZM100.705 97.5135V126.258L129.449 97.5135H100.705Z"
          fill="#0F1928"></path>
    <path d="M104.157 116.935V101.412H119.68L104.157 116.935ZM104.861 102.116V115.244L117.989 102.116H104.861Z"
          fill="#0F1928"></path>
    <path d="M106.036 97.1613H105.331V99.2983H106.036V97.1613Z" fill="#0F1928"></path>
    <path d="M111.367 97.1613H110.662V99.2983H111.367V97.1613Z" fill="#0F1928"></path>
    <path d="M116.698 97.1613H115.993V99.2983H116.698V97.1613Z" fill="#0F1928"></path>
    <path d="M122.028 97.1613H121.324V99.2983H122.028V97.1613Z" fill="#0F1928"></path>
    <path d="M125.273 113.115L105.413 132.975L108.833 136.396L128.694 116.535L125.273 113.115Z" fill="#316d9c"></path>
    <path
      d="M105.425 139.286L101.503 135.364L104.462 132.405L108.384 136.327L105.425 139.286ZM102.489 135.364L105.401 138.276L107.374 136.304L104.462 133.392L102.489 135.364Z"
      fill="#0F1928"></path>
    <path
      d="M107.891 136.82L103.969 132.899L124.142 112.725L130.671 110.119L128.064 116.647L128.017 116.694L107.891 136.82ZM104.955 132.922L107.867 135.834L127.43 116.272L129.379 111.41L124.541 113.336L104.955 132.922Z"
      fill="#0F1928"></path>
    <path d="M131.302 109.005L129.276 111.031L129.775 111.529L131.8 109.503L131.302 109.005Z" fill="#0F1928"></path>
    <path
      d="M131.61 137.807H120.878C118.764 137.807 117.073 136.092 117.073 134.002C117.073 131.889 118.788 130.198 120.878 130.198H131.61V137.807V137.807ZM120.878 130.879C119.163 130.879 117.778 132.264 117.778 133.979C117.778 135.693 119.163 137.079 120.878 137.079H130.906V130.855H120.878V130.879Z"
      fill="#0F1928"></path>
    <path
      d="M126.279 135.986H125.574V135.047H126.279V135.986ZM126.279 134.108H125.574V133.168H126.279V134.108ZM126.279 132.229H125.574V131.289H126.279V132.229Z"
      fill="#0F1928"></path>
  </g>
  <defs>
    <clipPath id="clip0">
      <rect width="143.15" height="150" fill="white"></rect>
    </clipPath>
  </defs>
</svg>
