<?xml version="1.0" encoding="UTF-8"?>
<svg xmlns="http://www.w3.org/2000/svg" width="149" height="150" viewBox="0 0 149 150" fill="none">
  <g clip-path="url(#clip0)">
    <path
      d="M35.2671 56.0942C35.2671 56.25 35.2671 56.4578 35.2671 56.6136C35.2671 56.8213 35.319 57.081 35.319 57.2888L35.2671 56.0942Z"
      fill="#EC4D42"></path>
    <path
      d="M72.4033 7.16757C63.262 4.36286 50.6928 2.80469 40.253 12.1537C27.3721 14.1274 20.3084 32.1503 25.3984 50.0692L25.5542 50.5886C14.0238 78.5318 40.0452 81.7001 40.0452 81.7001L44.8236 82.2195V78.4799L44.512 78.1683L42.2267 75.7271C37.8638 70.7929 35.3188 62.5346 35.2669 56.6136C33.9164 37.5519 43.2655 35.4224 43.2655 35.4224C43.2655 35.4224 57.2371 56.198 85.6477 56.198C102.476 30.7479 86.1671 11.3746 72.4033 7.16757Z"
      fill="#316d9c"></path>
    <path
      d="M134.263 34.2797L127.563 31.3192L120.863 34.2797L114.214 31.3192V80.038H134.367H140.963V31.3192L134.263 34.2797Z"
      fill="#316d9c"></path>
    <path d="M140.963 89.491H114.214V102.891H140.963V89.491Z" fill="#316d9c"></path>
    <path
      d="M148.961 145.17H101.125V73.1302C101.125 69.7022 103.93 66.8975 107.358 66.8975V68.4557C104.813 68.4557 102.684 70.5332 102.684 73.1302V143.612H147.403V73.1302C147.403 70.5852 145.326 68.4557 142.729 68.4557V66.8975C146.157 66.8975 148.961 69.7022 148.961 73.1302V145.17Z"
      fill="#0F1928"></path>
    <path d="M139.197 100.814H110.89V85.8552H139.197V100.814ZM112.448 99.2555H137.639V87.4134H112.448V99.2555Z"
          fill="#0F1928"></path>
    <path
      d="M141.95 112.396H141.274V110.838H141.95V112.396ZM139.197 112.396H137.119V110.838H139.197V112.396ZM135.042 112.396H132.964V110.838H135.042V112.396ZM130.887 112.396H128.809V110.838H130.887V112.396ZM126.731 112.396H124.654V110.838H126.731V112.396ZM122.576 112.396H120.499V110.838H122.576V112.396ZM118.421 112.396H116.344V110.838H118.421V112.396ZM114.266 112.396H112.188V110.838H114.266V112.396Z"
      fill="#0F1928"></path>
    <path
      d="M141.95 122.628H141.274V121.07H141.95V122.628ZM139.197 122.628H137.119V121.07H139.197V122.628ZM135.042 122.628H132.964V121.07H135.042V122.628ZM130.887 122.628H128.809V121.07H130.887V122.628ZM126.731 122.628H124.654V121.07H126.731V122.628ZM122.576 122.628H120.499V121.07H122.576V122.628ZM118.421 122.628H116.344V121.07H118.421V122.628ZM114.266 122.628H112.188V121.07H114.266V122.628Z"
      fill="#0F1928"></path>
    <path
      d="M141.95 132.808H141.274V131.25H141.95V132.808ZM139.197 132.808H137.119V131.25H139.197V132.808ZM135.042 132.808H132.964V131.25H135.042V132.808ZM130.887 132.808H128.809V131.25H130.887V132.808ZM126.731 132.808H124.654V131.25H126.731V132.808ZM122.576 132.808H120.499V131.25H122.576V132.808ZM118.421 132.808H116.344V131.25H118.421V132.808ZM114.266 132.808H112.188V131.25H114.266V132.808Z"
      fill="#0F1928"></path>
    <path
      d="M131.822 77.3372H110.89V26.6447L118.369 29.9688L125.018 27.0083L131.718 29.9688L139.197 26.6447V76.5581H137.639V29.0339L131.718 31.6828L125.018 28.7223L118.369 31.6828L112.448 29.0339V75.7791H131.822V77.3372Z"
      fill="#0F1928"></path>
    <path d="M130.783 44.0443H118.889V45.6025H130.783V44.0443Z" fill="#0F1928"></path>
    <path d="M130.783 53.5492H118.889V55.1073H130.783V53.5492Z" fill="#0F1928"></path>
    <path d="M130.783 63.1059H118.889V64.6641H130.783V63.1059Z" fill="#0F1928"></path>
    <path
      d="M56.7174 146.572H55.1592V144.494H56.7174V146.572ZM56.7174 142.417H55.1592V140.339H56.7174V142.417ZM56.7174 138.262H55.1592V136.184H56.7174V138.262ZM56.7174 134.107H55.1592V132.029H56.7174V134.107ZM56.7174 129.951H55.1592V127.874H56.7174V129.951ZM56.7174 125.796H55.1592V123.719H56.7174V125.796ZM56.7174 121.641H55.1592V119.564H56.7174V121.641ZM56.7174 117.486H55.1592V115.409H56.7174V117.486ZM56.7174 113.331H55.1592V111.253H56.7174V113.331ZM56.7174 109.176H55.1592V107.098H56.7174V109.176Z"
      fill="#0F1928"></path>
    <path
      d="M56.0941 82.7389C52.1467 82.7389 48.4071 80.973 45.2388 77.6489L39.8891 72.0395C35.0068 66.5859 32.6176 57.7562 32.7215 51.8352L34.2797 51.8871C34.1758 57.3407 36.5131 65.9107 41.0837 71.0007L46.3815 76.6101C49.2381 79.6226 52.6142 81.1807 56.0941 81.1807C59.6259 81.1807 63.002 79.6226 65.8067 76.6101L71.1564 71.0007C75.4154 66.5339 77.9085 59.4183 77.9085 51.8871H79.4667C79.4667 59.7818 76.7658 67.313 72.2991 72.0914L66.9493 77.7008C63.7811 80.973 60.0415 82.7389 56.0941 82.7389Z"
      fill="#0F1928"></path>
    <path d="M22.4898 136.132H20.9316V145.689H22.4898V136.132Z" fill="#0F1928"></path>
    <path d="M46.0918 20.6993L44.7993 21.5696L46.8879 24.6716L48.1804 23.8013L46.0918 20.6993Z" fill="#0F1928"></path>
    <path
      d="M81.2848 43.7846C62.4309 42.7978 51.7315 31.1634 48.9268 27.5796L50.1214 26.5928C52.8222 30.0208 63.1581 41.2396 81.3367 42.1745L81.2848 43.7846Z"
      fill="#0F1928"></path>
    <path
      d="M27.1122 56.0422C20.3082 43.9924 19.3214 29.2417 24.5672 18.4383C27.6316 12.1018 32.4619 8.15442 38.1233 7.16757C46.5374 -0.259711 57.4966 -1.92176 70.8449 2.18142C77.3373 4.20705 86.3227 10.2839 90.1143 20.9314C92.5554 27.7354 93.5423 38.7465 84.5049 52.4065L84.2971 52.7701H83.8816C57.8601 52.7701 43.5769 35.3185 41.1877 32.1503C39.3698 32.9293 32.9813 36.8767 34.3317 53.0298L32.7736 53.1856C31.1115 33.0332 40.928 30.5921 41.3435 30.4882L41.8629 30.3843L42.1745 30.8518C42.3304 31.0595 56.1461 51.0561 83.4661 51.2638C91.9322 38.2791 90.9973 27.9432 88.66 21.5028C85.0762 11.4266 76.5582 5.6094 70.4294 3.7396C57.6004 -0.207772 47.0049 1.40234 39.0582 8.56993L38.9024 8.72575L38.6946 8.77768C33.3449 9.50483 28.8781 13.1925 25.9696 19.1136C20.9315 29.5014 21.9183 43.6807 28.4626 55.2631L27.1122 56.0422Z"
      fill="#0F1928"></path>
    <path d="M69.1309 75.0519H67.5728V89.9584H69.1309V75.0519Z" fill="#0F1928"></path>
    <path
      d="M94.2173 103.463C89.5947 98.9439 85.2838 95.6198 81.3364 93.698L68.04 87.9328L68.6633 86.4785L82.0116 92.2438C86.1148 94.2694 90.5816 97.6454 95.308 102.32L94.2173 103.463Z"
      fill="#0F1928"></path>
    <path d="M43.8365 74.2728H42.2783V89.491H43.8365V74.2728Z" fill="#0F1928"></path>
    <path
      d="M55.7306 150C36.5132 150 17.9709 146.884 0.675208 140.703L0 140.443L2.49307 131.873L3.79155 127.147C8.15443 111.461 17.919 98.892 30.5402 92.6593L42.4342 86.7902L43.1094 88.1925L31.2154 94.0616C19.0097 100.087 9.55679 112.292 5.29778 127.562L3.99931 132.289L1.92175 139.456C18.8539 145.429 36.9806 148.442 55.7825 148.442C69.7022 148.442 83.3622 146.78 96.3989 143.456L96.7625 144.962C83.5699 148.286 69.7542 150 55.7306 150Z"
      fill="#0F1928"></path>
    <path
      d="M56.1459 93.5942C50.2768 93.5942 44.979 91.984 40.772 88.9716L41.6549 87.725C45.6023 90.5297 50.5885 92.036 56.094 92.036C61.7034 92.036 66.8973 90.5297 70.7408 87.725L71.6238 88.9716C67.5725 91.984 62.015 93.5942 56.1459 93.5942Z"
      fill="#0F1928"></path>
    <path
      d="M38.2272 78.2721C37.7597 78.2202 27.32 76.8178 22.4377 68.5076C19.1136 62.7943 19.3214 55.2112 23.1129 46.0699L24.5672 46.6412C20.9834 55.3151 20.7237 62.3788 23.7881 67.6766C28.2549 75.3116 38.3311 76.662 38.4349 76.662L38.2272 78.2721Z"
      fill="#0F1928"></path>
    <path d="M48.9268 110.526H47.3687V149.169H48.9268V110.526Z" fill="#0F1928"></path>
    <path
      d="M44.3039 106.579C39.6293 106.579 35.3703 104.19 32.9292 100.242L34.2796 99.4113C36.4611 102.943 40.2007 105.021 44.3558 105.021C50.8482 105.021 56.1979 99.723 56.1979 93.1786H57.7561C57.6522 100.554 51.6792 106.579 44.3039 106.579Z"
      fill="#0F1928"></path>
    <path
      d="M69.4945 106.579C62.1192 106.579 56.0942 100.554 56.0942 93.1786H57.6524C57.6524 99.671 62.9502 105.021 69.4945 105.021C73.5977 105.021 77.3892 102.943 79.5707 99.4113L80.8692 100.242C78.428 104.19 74.169 106.579 69.4945 106.579Z"
      fill="#0F1928"></path>
  </g>
  <defs>
    <clipPath id="clip0">
      <rect width="148.961" height="150" fill="white"></rect>
    </clipPath>
  </defs>
</svg>
