<?xml version="1.0" encoding="iso-8859-1"?>
<!-- Generator: Adobe Illustrator 19.0.0, SVG Export Plug-In . SVG Version: 6.00 Build 0)  -->
<svg version="1.1" id="Capa_1" xmlns="http://www.w3.org/2000/svg" xmlns:xlink="http://www.w3.org/1999/xlink" x="0px"
     y="0px"
     viewBox="0 0 512 512" style="enable-background:new 0 0 512 512;" xml:space="preserve">
<path  style="fill:#fff;" d="M456.403,71.629H135.758c-4.427,0-8.016,3.589-8.016,8.016V504.5h288.581
	c26.563,0,48.097-21.534,48.097-48.097V79.645C464.419,75.218,460.831,71.629,456.403,71.629z"/>
  <path  style="fill:#fff;" d="M368.706,463.228c-0.557-3.921-3.908-6.825-7.868-6.825H88.475c-4.909,0-8.882,4.414-7.945,9.232
	c4.306,22.146,23.806,38.864,47.212,38.864h288.581C392.077,504.5,372.021,486.559,368.706,463.228z"/>
  <g >
	<path style="fill:#316d9c;"
        d="M47.581,87.661v304.613h304.613L47.581,87.661z M95.677,199.887l144.29,144.29H95.677V199.887z"/>
    <rect x="368.23" y="39.565" style="fill:#316d9c;" width="32.06" height="208.42"/>
</g>
  <path style="fill:#EDEBED;" d="M392.273,7.5h-16.032c-4.427,0-8.016,3.589-8.016,8.016v24.048h32.065V15.516
	C400.29,11.089,396.701,7.5,392.273,7.5z"/>
  <path fill="#316d9c" style="fill:#FFFFFF;" d="M381.552,307.953l-13.327-59.969h32.065l-13.327,59.969
	C386.321,310.847,382.195,310.847,381.552,307.953z"/>
  <path style="fill:#6F6571;" d="M375.351,280.048l6.201,27.905c0.643,2.894,4.768,2.894,5.411,0l6.201-27.905H375.351z"/>
  <path d="M456.403,64.129h-48.611V15.516C407.792,6.96,400.832,0,392.276,0h-16.032c-8.556,0-15.516,6.96-15.516,15.516v48.613
	h-224.97c-8.556,0-15.517,6.96-15.517,15.516v70.071L52.884,82.358c-2.145-2.146-5.372-2.786-8.173-1.626
	c-2.803,1.161-4.63,3.896-4.63,6.929v304.613c0,4.142,3.358,7.5,7.5,7.5h72.661v24.563c0,4.142,3.358,7.5,7.5,7.5s7.5-3.358,7.5-7.5
	v-24.563h216.952c3.034,0,5.768-1.827,6.929-4.63c1.161-2.803,0.519-6.028-1.626-8.173L135.242,164.716V79.645
	c0-0.285,0.232-0.516,0.517-0.516h224.97V256c0,0.697,0.097,1.39,0.289,2.061l16.032,56.113c0.92,3.22,3.863,5.439,7.211,5.439
	s6.292-2.22,7.211-5.439l16.032-56.113c0.191-0.67,0.289-1.364,0.289-2.061V119.726c0-4.142-3.358-7.5-7.5-7.5s-7.5,3.358-7.5,7.5
	v120.758h-17.064V47.064h17.064v40.595c0,4.142,3.358,7.5,7.5,7.5s7.5-3.358,7.5-7.5v-8.53h48.611c0.285,0,0.516,0.231,0.516,0.516
	v376.758c0,22.385-18.211,40.597-40.597,40.597c-20.092,0-37.371-14.972-40.191-34.827c-1.075-7.565-7.65-13.27-15.294-13.27H88.475
	c-4.696,0-9.107,2.083-12.101,5.714c-2.893,3.51-4.062,8.047-3.206,12.449C78.23,493.103,101.182,512,127.742,512h288.581
	c30.656,0,55.597-24.94,55.597-55.597V79.645C471.919,71.089,464.959,64.129,456.403,64.129z M55.081,384.774V105.768
	l279.006,279.007H55.081V384.774z M384.26,284.813l-8.38-29.329h16.759L384.26,284.813z M375.728,32.064V15.516
	c0-0.285,0.231-0.516,0.516-0.516h16.032c0.285,0,0.516,0.231,0.516,0.516v16.548H375.728z M127.742,497
	c-19.396,0-36.155-13.793-39.854-32.745c0.027-0.085,0.255-0.352,0.587-0.352h272.363c0.226,0,0.412,0.16,0.443,0.38
	c1.833,12.902,8.118,24.299,17.157,32.717L127.742,497L127.742,497z"/>
  <path d="M100.98,194.584c-2.145-2.146-5.372-2.786-8.173-1.626c-2.803,1.161-4.63,3.896-4.63,6.929v144.29
	c0,4.142,3.358,7.5,7.5,7.5h144.291c3.034,0,5.768-1.827,6.929-4.63s0.519-6.028-1.626-8.173L100.98,194.584z M103.177,217.994
	l17.064,17.064v101.619h-17.064V217.994z M135.242,336.677v-86.619l86.62,86.619H135.242z"/>
  <g>
</g>
  <g>
</g>
  <g>
</g>
  <g>
</g>
  <g>
</g>
  <g>
</g>
  <g>
</g>
  <g>
</g>
  <g>
</g>
  <g>
</g>
  <g>
</g>
  <g>
</g>
  <g>
</g>
  <g>
</g>
  <g>
</g>
</svg>
